<svg xmlns="http://www.w3.org/2000/svg">

<symbol id="ton" width="56" height="56" viewBox="0 0 56 56" fill="none" >
<path d="M28 56C43.464 56 56 43.464 56 28C56 12.536 43.464 0 28 0C12.536 0 0 12.536 0 28C0 43.464 12.536 56 28 56Z" fill="#0098EA"/>
<path d="M37.5603 15.6277H18.4386C14.9228 15.6277 12.6944 19.4202 14.4632 22.4861L26.2644 42.9409C27.0345 44.2765 28.9644 44.2765 29.7345 42.9409L41.5381 22.4861C43.3045 19.4251 41.0761 15.6277 37.5627 15.6277H37.5603ZM26.2548 36.8068L23.6847 31.8327L17.4833 20.7414C17.0742 20.0315 17.5795 19.1218 18.4362 19.1218H26.2524V36.8092L26.2548 36.8068ZM38.5108 20.739L32.3118 31.8351L29.7417 36.8068V19.1194H37.5579C38.4146 19.1194 38.9199 20.0291 38.5108 20.739Z" fill="white"/>
</symbol>

<svg width="48" height="48" viewBox="0 0 48 48" fill="none" xmlns="http://www.w3.org/2000/svg">
<path d="M26.2128 4.22672C24.8915 3.1188 23.1075 3.11885 21.7862 4.22683C20.7513 5.09465 19.3054 6.36934 17.3509 8.21346C14.7985 8.29103 12.9547 8.40768 11.6525 8.52173C9.93425 8.67221 8.67265 9.93393 8.52224 11.6522C8.40824 12.9543 8.29165 14.7981 8.21413 17.3501C6.3697 19.3049 5.09474 20.7511 4.22669 21.7862C3.11839 23.108 3.11846 24.8925 4.22682 26.2141C5.09487 27.2492 6.3698 28.6952 8.21413 30.6499C8.29165 33.2019 8.40823 35.0455 8.52222 36.3477C8.67264 38.0661 9.93434 39.3279 11.6527 39.4783C12.9549 39.5924 14.7987 39.7091 17.3509 39.7866C19.3049 41.6303 20.7506 42.9049 21.7854 43.7728C23.1072 44.8812 24.8919 44.8813 26.2136 43.7729C27.2485 42.905 28.6944 41.6304 30.6484 39.7867C33.202 39.7091 35.0465 39.5924 36.3489 39.4783C38.0669 39.3279 39.3282 38.0665 39.4788 36.3487C39.593 35.0461 39.7097 33.2014 39.7874 30.6477C41.6308 28.6939 42.9051 27.2483 43.7728 26.2136C44.8808 24.8923 44.8809 23.1082 43.7729 21.7867C42.9052 20.7519 41.6309 19.3063 39.7874 17.3523C39.7097 14.7984 39.5929 12.9538 39.4788 11.6513C39.3282 9.93348 38.067 8.67225 36.3491 8.52177C35.0467 8.40769 33.2022 8.29098 30.6485 8.2134C28.694 6.36924 27.2478 5.09454 26.2128 4.22672Z" fill="#FF0000"/>
<path fill-rule="evenodd" clip-rule="evenodd" d="M20.5548 2.75819C22.5885 1.05289 25.4108 1.05279 27.4445 2.75802C28.4155 3.57217 29.7211 4.71988 31.4339 6.32138C33.6475 6.39892 35.3011 6.50595 36.5165 6.61243C39.1608 6.84406 41.1566 8.83972 41.3883 11.484C41.4949 12.6995 41.6019 14.3533 41.6796 16.5671C43.2804 18.2793 44.4278 19.5845 45.2418 20.5553C46.9471 22.589 46.9469 25.4115 45.2416 27.4452C44.4277 28.4159 43.2804 29.721 41.6796 31.433C41.6019 33.6467 41.4949 35.3004 41.3883 36.516C41.1566 39.1603 39.1607 41.1561 36.5163 41.3877C35.3009 41.4942 33.6473 41.6012 31.4338 41.6787C29.7216 43.2798 28.4162 44.4273 27.4453 45.2415C25.4112 46.9473 22.588 46.9472 20.5541 45.2414C19.5833 44.4272 18.278 43.2796 16.5659 41.6786C14.3536 41.6011 12.7008 41.4942 11.4856 41.3877C8.84076 41.1561 6.84453 39.1597 6.61302 36.5149C6.50665 35.2998 6.39974 33.6471 6.32226 31.4351C4.72062 29.7223 3.57273 28.4168 2.75841 27.4458C1.05265 25.4118 1.05249 22.5888 2.75822 20.5547C3.57255 19.5836 4.72051 18.2779 6.32227 16.5649C6.39975 14.3528 6.50666 12.7001 6.61303 11.4851C6.84455 8.84033 8.84065 6.84401 11.4854 6.61238C12.7006 6.50595 14.3535 6.39897 16.5658 6.32145C18.2785 4.72 19.5839 3.57231 20.5548 2.75819ZM24.9816 5.69543C24.3726 5.18483 23.6269 5.18484 23.0179 5.6955C22.0168 6.53499 20.599 7.78407 18.6663 9.60756C18.3253 9.92939 17.878 10.115 17.4092 10.1293C14.8864 10.2059 13.0795 10.3208 11.8199 10.4311C11.0282 10.5004 10.5011 11.0275 10.4318 11.8194C10.3215 13.0789 10.2067 14.8857 10.1301 17.4083C10.1158 17.8771 9.93022 18.3244 9.60836 18.6655C7.78457 20.5984 6.53521 22.0164 5.69549 23.0178C5.18461 23.6271 5.18461 24.3733 5.69558 24.9825C6.53531 25.9838 7.78465 27.4018 9.60835 29.3346C9.93021 29.6756 10.1158 30.1229 10.1301 30.5917C10.2067 33.1142 10.3215 34.921 10.4317 36.1806C10.5011 36.9725 11.0282 37.4996 11.8201 37.569C13.0797 37.6793 14.8866 37.7941 17.4093 37.8708C17.8781 37.8851 18.3254 38.0707 18.6664 38.3925C20.5986 40.2157 22.0162 41.4647 23.0173 42.3043C23.6266 42.8152 24.3729 42.8152 24.9822 42.3043C25.9834 41.4648 27.4011 40.2157 29.3333 38.3926C29.6744 38.0707 30.1217 37.8852 30.5904 37.8709C33.1144 37.7942 34.922 37.6793 36.1819 37.5689C36.9734 37.4996 37.5003 36.9728 37.5696 36.1814C37.68 34.9213 37.795 33.1137 37.8717 30.5895C37.886 30.1208 38.0716 29.6735 38.3934 29.3324C40.2162 27.4004 41.4649 25.9831 42.3043 24.9821C42.815 24.3731 42.815 23.6272 42.3044 23.0182C41.465 22.0172 40.2163 20.5997 38.3934 18.6676C38.0715 18.3265 37.886 17.8792 37.8717 17.4105C37.795 14.8862 37.68 13.0785 37.5696 11.8186C37.5003 11.0272 36.9735 10.5005 36.1821 10.4311C34.9222 10.3208 33.1146 10.2059 30.5905 10.1292C30.1218 10.115 29.6745 9.92935 29.3333 9.60751C27.4007 7.784 25.9828 6.53492 24.9816 5.69543Z" fill="black"/>
</svg>

</svg>